<mxfile host="app.diagrams.net" modified="2022-10-14T08:44:23.073Z" agent="5.0 (Windows NT 10.0; Win64; x64) AppleWebKit/537.36 (KHTML, like Gecko) Chrome/106.0.0.0 Safari/537.36" etag="9vQpLmIrKqbC5XXh6UJ2" version="20.3.1" type="github">
  <diagram id="C5RBs43oDa-KdzZeNtuy" name="Page-1">
    <mxGraphModel dx="1038" dy="615" grid="1" gridSize="10" guides="1" tooltips="1" connect="1" arrows="1" fold="1" page="1" pageScale="1" pageWidth="827" pageHeight="1169" math="0" shadow="0">
      <root>
        <mxCell id="WIyWlLk6GJQsqaUBKTNV-0" />
        <mxCell id="WIyWlLk6GJQsqaUBKTNV-1" parent="WIyWlLk6GJQsqaUBKTNV-0" />
        <mxCell id="ggcixYD4XGoZoEHlCD6j-1" style="edgeStyle=orthogonalEdgeStyle;rounded=0;orthogonalLoop=1;jettySize=auto;html=1;exitX=0.5;exitY=1;exitDx=0;exitDy=0;entryX=0.5;entryY=0;entryDx=0;entryDy=0;" edge="1" parent="WIyWlLk6GJQsqaUBKTNV-1" source="nPQZDcozVfeQu8LcNFeC-0" target="ggcixYD4XGoZoEHlCD6j-0">
          <mxGeometry relative="1" as="geometry" />
        </mxCell>
        <mxCell id="nPQZDcozVfeQu8LcNFeC-0" value="Start" style="rounded=1;whiteSpace=wrap;html=1;arcSize=50;" parent="WIyWlLk6GJQsqaUBKTNV-1" vertex="1">
          <mxGeometry x="180" y="50" width="120" height="30" as="geometry" />
        </mxCell>
        <mxCell id="ggcixYD4XGoZoEHlCD6j-3" value="" style="edgeStyle=orthogonalEdgeStyle;rounded=0;orthogonalLoop=1;jettySize=auto;html=1;" edge="1" parent="WIyWlLk6GJQsqaUBKTNV-1" source="ggcixYD4XGoZoEHlCD6j-0" target="ggcixYD4XGoZoEHlCD6j-2">
          <mxGeometry relative="1" as="geometry" />
        </mxCell>
        <mxCell id="ggcixYD4XGoZoEHlCD6j-0" value="Read matrix A" style="shape=parallelogram;perimeter=parallelogramPerimeter;whiteSpace=wrap;html=1;fixedSize=1;" vertex="1" parent="WIyWlLk6GJQsqaUBKTNV-1">
          <mxGeometry x="180" y="120" width="120" height="60" as="geometry" />
        </mxCell>
        <mxCell id="ggcixYD4XGoZoEHlCD6j-8" style="edgeStyle=orthogonalEdgeStyle;rounded=0;orthogonalLoop=1;jettySize=auto;html=1;" edge="1" parent="WIyWlLk6GJQsqaUBKTNV-1" source="ggcixYD4XGoZoEHlCD6j-2" target="ggcixYD4XGoZoEHlCD6j-7">
          <mxGeometry relative="1" as="geometry" />
        </mxCell>
        <mxCell id="ggcixYD4XGoZoEHlCD6j-11" style="edgeStyle=orthogonalEdgeStyle;rounded=0;orthogonalLoop=1;jettySize=auto;html=1;exitX=0.5;exitY=1;exitDx=0;exitDy=0;entryX=0.5;entryY=0;entryDx=0;entryDy=0;" edge="1" parent="WIyWlLk6GJQsqaUBKTNV-1" source="ggcixYD4XGoZoEHlCD6j-2" target="ggcixYD4XGoZoEHlCD6j-10">
          <mxGeometry relative="1" as="geometry" />
        </mxCell>
        <mxCell id="ggcixYD4XGoZoEHlCD6j-2" value="is Valid" style="rhombus;whiteSpace=wrap;html=1;" vertex="1" parent="WIyWlLk6GJQsqaUBKTNV-1">
          <mxGeometry x="200" y="220" width="80" height="80" as="geometry" />
        </mxCell>
        <mxCell id="ggcixYD4XGoZoEHlCD6j-7" value="Print error &lt;br&gt;messege" style="shape=parallelogram;perimeter=parallelogramPerimeter;whiteSpace=wrap;html=1;fixedSize=1;" vertex="1" parent="WIyWlLk6GJQsqaUBKTNV-1">
          <mxGeometry x="354" y="230" width="120" height="60" as="geometry" />
        </mxCell>
        <mxCell id="ggcixYD4XGoZoEHlCD6j-9" value="Yes" style="text;html=1;strokeColor=none;fillColor=none;align=center;verticalAlign=middle;whiteSpace=wrap;rounded=0;" vertex="1" parent="WIyWlLk6GJQsqaUBKTNV-1">
          <mxGeometry x="225" y="300" width="60" height="30" as="geometry" />
        </mxCell>
        <mxCell id="ggcixYD4XGoZoEHlCD6j-16" style="edgeStyle=orthogonalEdgeStyle;rounded=0;orthogonalLoop=1;jettySize=auto;html=1;exitX=0.5;exitY=1;exitDx=0;exitDy=0;entryX=0.5;entryY=0;entryDx=0;entryDy=0;" edge="1" parent="WIyWlLk6GJQsqaUBKTNV-1" source="ggcixYD4XGoZoEHlCD6j-10" target="ggcixYD4XGoZoEHlCD6j-13">
          <mxGeometry relative="1" as="geometry" />
        </mxCell>
        <mxCell id="ggcixYD4XGoZoEHlCD6j-10" value="Read matrix B" style="shape=parallelogram;perimeter=parallelogramPerimeter;whiteSpace=wrap;html=1;fixedSize=1;" vertex="1" parent="WIyWlLk6GJQsqaUBKTNV-1">
          <mxGeometry x="180" y="340" width="120" height="60" as="geometry" />
        </mxCell>
        <mxCell id="ggcixYD4XGoZoEHlCD6j-12" value="No" style="text;html=1;strokeColor=none;fillColor=none;align=center;verticalAlign=middle;whiteSpace=wrap;rounded=0;" vertex="1" parent="WIyWlLk6GJQsqaUBKTNV-1">
          <mxGeometry x="265" y="238" width="60" height="30" as="geometry" />
        </mxCell>
        <mxCell id="ggcixYD4XGoZoEHlCD6j-14" style="edgeStyle=orthogonalEdgeStyle;rounded=0;orthogonalLoop=1;jettySize=auto;html=1;" edge="1" parent="WIyWlLk6GJQsqaUBKTNV-1" source="ggcixYD4XGoZoEHlCD6j-13" target="ggcixYD4XGoZoEHlCD6j-7">
          <mxGeometry relative="1" as="geometry" />
        </mxCell>
        <mxCell id="ggcixYD4XGoZoEHlCD6j-20" value="" style="edgeStyle=orthogonalEdgeStyle;rounded=0;orthogonalLoop=1;jettySize=auto;html=1;" edge="1" parent="WIyWlLk6GJQsqaUBKTNV-1" source="ggcixYD4XGoZoEHlCD6j-13" target="ggcixYD4XGoZoEHlCD6j-19">
          <mxGeometry relative="1" as="geometry" />
        </mxCell>
        <mxCell id="ggcixYD4XGoZoEHlCD6j-13" value="is Valid" style="rhombus;whiteSpace=wrap;html=1;" vertex="1" parent="WIyWlLk6GJQsqaUBKTNV-1">
          <mxGeometry x="200" y="440" width="80" height="80" as="geometry" />
        </mxCell>
        <mxCell id="ggcixYD4XGoZoEHlCD6j-15" value="No" style="text;html=1;strokeColor=none;fillColor=none;align=center;verticalAlign=middle;whiteSpace=wrap;rounded=0;" vertex="1" parent="WIyWlLk6GJQsqaUBKTNV-1">
          <mxGeometry x="265" y="455" width="60" height="30" as="geometry" />
        </mxCell>
        <mxCell id="ggcixYD4XGoZoEHlCD6j-21" style="edgeStyle=orthogonalEdgeStyle;rounded=0;orthogonalLoop=1;jettySize=auto;html=1;entryX=0.75;entryY=1;entryDx=0;entryDy=0;" edge="1" parent="WIyWlLk6GJQsqaUBKTNV-1" source="ggcixYD4XGoZoEHlCD6j-19" target="ggcixYD4XGoZoEHlCD6j-7">
          <mxGeometry relative="1" as="geometry" />
        </mxCell>
        <mxCell id="ggcixYD4XGoZoEHlCD6j-25" value="" style="edgeStyle=orthogonalEdgeStyle;rounded=0;orthogonalLoop=1;jettySize=auto;html=1;" edge="1" parent="WIyWlLk6GJQsqaUBKTNV-1" source="ggcixYD4XGoZoEHlCD6j-19" target="ggcixYD4XGoZoEHlCD6j-24">
          <mxGeometry relative="1" as="geometry" />
        </mxCell>
        <mxCell id="ggcixYD4XGoZoEHlCD6j-19" value="can multiply" style="rhombus;whiteSpace=wrap;html=1;" vertex="1" parent="WIyWlLk6GJQsqaUBKTNV-1">
          <mxGeometry x="200" y="560" width="80" height="80" as="geometry" />
        </mxCell>
        <mxCell id="ggcixYD4XGoZoEHlCD6j-22" value="No" style="text;html=1;strokeColor=none;fillColor=none;align=center;verticalAlign=middle;whiteSpace=wrap;rounded=0;" vertex="1" parent="WIyWlLk6GJQsqaUBKTNV-1">
          <mxGeometry x="265" y="574" width="60" height="30" as="geometry" />
        </mxCell>
        <mxCell id="ggcixYD4XGoZoEHlCD6j-23" value="Yes" style="text;html=1;strokeColor=none;fillColor=none;align=center;verticalAlign=middle;whiteSpace=wrap;rounded=0;" vertex="1" parent="WIyWlLk6GJQsqaUBKTNV-1">
          <mxGeometry x="225" y="522" width="60" height="30" as="geometry" />
        </mxCell>
        <mxCell id="ggcixYD4XGoZoEHlCD6j-28" style="edgeStyle=orthogonalEdgeStyle;rounded=0;orthogonalLoop=1;jettySize=auto;html=1;entryX=0.5;entryY=0;entryDx=0;entryDy=0;" edge="1" parent="WIyWlLk6GJQsqaUBKTNV-1" source="ggcixYD4XGoZoEHlCD6j-24" target="ggcixYD4XGoZoEHlCD6j-27">
          <mxGeometry relative="1" as="geometry" />
        </mxCell>
        <mxCell id="ggcixYD4XGoZoEHlCD6j-24" value="Multiply" style="whiteSpace=wrap;html=1;" vertex="1" parent="WIyWlLk6GJQsqaUBKTNV-1">
          <mxGeometry x="180" y="690" width="120" height="60" as="geometry" />
        </mxCell>
        <mxCell id="ggcixYD4XGoZoEHlCD6j-26" value="Yes" style="text;html=1;strokeColor=none;fillColor=none;align=center;verticalAlign=middle;whiteSpace=wrap;rounded=0;" vertex="1" parent="WIyWlLk6GJQsqaUBKTNV-1">
          <mxGeometry x="225" y="646" width="60" height="30" as="geometry" />
        </mxCell>
        <mxCell id="ggcixYD4XGoZoEHlCD6j-30" style="edgeStyle=orthogonalEdgeStyle;rounded=0;orthogonalLoop=1;jettySize=auto;html=1;exitX=0.5;exitY=1;exitDx=0;exitDy=0;" edge="1" parent="WIyWlLk6GJQsqaUBKTNV-1" source="ggcixYD4XGoZoEHlCD6j-27" target="ggcixYD4XGoZoEHlCD6j-29">
          <mxGeometry relative="1" as="geometry" />
        </mxCell>
        <mxCell id="ggcixYD4XGoZoEHlCD6j-27" value="Print multiplied&lt;br&gt;matrix" style="shape=parallelogram;perimeter=parallelogramPerimeter;whiteSpace=wrap;html=1;fixedSize=1;" vertex="1" parent="WIyWlLk6GJQsqaUBKTNV-1">
          <mxGeometry x="180" y="800" width="120" height="60" as="geometry" />
        </mxCell>
        <mxCell id="ggcixYD4XGoZoEHlCD6j-29" value="End" style="rounded=1;whiteSpace=wrap;html=1;arcSize=50;" vertex="1" parent="WIyWlLk6GJQsqaUBKTNV-1">
          <mxGeometry x="180" y="910" width="120" height="30" as="geometry" />
        </mxCell>
      </root>
    </mxGraphModel>
  </diagram>
</mxfile>
